<mxfile host="app.diagrams.net" modified="2021-03-19T19:04:47.232Z" agent="5.0 (Windows NT 10.0; Win64; x64) AppleWebKit/537.36 (KHTML, like Gecko) Chrome/89.0.4389.82 Safari/537.36" etag="m7x1yJMeqI_o-zW4jcMp" version="14.4.9" type="github">
  <diagram id="R2lEEEUBdFMjLlhIrx00" name="Page-1">
    <mxGraphModel dx="1066" dy="585" grid="1" gridSize="10" guides="1" tooltips="1" connect="1" arrows="1" fold="1" page="1" pageScale="1" pageWidth="850" pageHeight="1100" math="0" shadow="0" extFonts="Permanent Marker^https://fonts.googleapis.com/css?family=Permanent+Marker">
      <root>
        <mxCell id="0" />
        <mxCell id="1" parent="0" />
        <mxCell id="-aDSYGf8J6-FoEfoN00e-79" style="edgeStyle=orthogonalEdgeStyle;rounded=0;orthogonalLoop=1;jettySize=auto;html=1;exitX=1;exitY=0.5;exitDx=0;exitDy=0;entryX=0;entryY=0.5;entryDx=0;entryDy=0;" edge="1" parent="1" source="-aDSYGf8J6-FoEfoN00e-1" target="-aDSYGf8J6-FoEfoN00e-28">
          <mxGeometry relative="1" as="geometry" />
        </mxCell>
        <mxCell id="-aDSYGf8J6-FoEfoN00e-1" value="populacao" style="whiteSpace=wrap;html=1;align=center;" vertex="1" parent="1">
          <mxGeometry x="110" y="210" width="130" height="50" as="geometry" />
        </mxCell>
        <mxCell id="-aDSYGf8J6-FoEfoN00e-5" value="" style="edgeStyle=orthogonalEdgeStyle;rounded=0;orthogonalLoop=1;jettySize=auto;html=1;entryX=0.111;entryY=0;entryDx=0;entryDy=0;entryPerimeter=0;" edge="1" parent="1" source="-aDSYGf8J6-FoEfoN00e-3" target="-aDSYGf8J6-FoEfoN00e-1">
          <mxGeometry relative="1" as="geometry" />
        </mxCell>
        <mxCell id="-aDSYGf8J6-FoEfoN00e-3" value="cpf" style="ellipse;whiteSpace=wrap;html=1;align=center;fontStyle=4;" vertex="1" parent="1">
          <mxGeometry x="110" y="150" width="40" height="40" as="geometry" />
        </mxCell>
        <mxCell id="-aDSYGf8J6-FoEfoN00e-6" style="edgeStyle=orthogonalEdgeStyle;rounded=0;orthogonalLoop=1;jettySize=auto;html=1;" edge="1" parent="1" source="-aDSYGf8J6-FoEfoN00e-4">
          <mxGeometry relative="1" as="geometry">
            <mxPoint x="185" y="208" as="targetPoint" />
          </mxGeometry>
        </mxCell>
        <mxCell id="-aDSYGf8J6-FoEfoN00e-4" value="nome" style="ellipse;whiteSpace=wrap;html=1;align=center;" vertex="1" parent="1">
          <mxGeometry x="160" y="150" width="50" height="40" as="geometry" />
        </mxCell>
        <mxCell id="-aDSYGf8J6-FoEfoN00e-28" value="Registra" style="shape=rhombus;perimeter=rhombusPerimeter;whiteSpace=wrap;html=1;align=center;" vertex="1" parent="1">
          <mxGeometry x="290" y="205" width="70" height="60" as="geometry" />
        </mxCell>
        <mxCell id="-aDSYGf8J6-FoEfoN00e-29" value="denuncia" style="whiteSpace=wrap;html=1;align=center;" vertex="1" parent="1">
          <mxGeometry x="411" y="210" width="180" height="50" as="geometry" />
        </mxCell>
        <mxCell id="-aDSYGf8J6-FoEfoN00e-30" value="" style="edgeStyle=orthogonalEdgeStyle;rounded=0;orthogonalLoop=1;jettySize=auto;html=1;entryX=0.111;entryY=0;entryDx=0;entryDy=0;entryPerimeter=0;" edge="1" parent="1" source="-aDSYGf8J6-FoEfoN00e-31" target="-aDSYGf8J6-FoEfoN00e-29">
          <mxGeometry relative="1" as="geometry" />
        </mxCell>
        <mxCell id="-aDSYGf8J6-FoEfoN00e-31" value="cod" style="ellipse;whiteSpace=wrap;html=1;align=center;fontStyle=4;" vertex="1" parent="1">
          <mxGeometry x="411" y="150" width="40" height="40" as="geometry" />
        </mxCell>
        <mxCell id="-aDSYGf8J6-FoEfoN00e-35" style="edgeStyle=orthogonalEdgeStyle;rounded=0;orthogonalLoop=1;jettySize=auto;html=1;entryX=0.386;entryY=0;entryDx=0;entryDy=0;entryPerimeter=0;" edge="1" parent="1" source="-aDSYGf8J6-FoEfoN00e-33" target="-aDSYGf8J6-FoEfoN00e-29">
          <mxGeometry relative="1" as="geometry" />
        </mxCell>
        <mxCell id="-aDSYGf8J6-FoEfoN00e-33" value="autor" style="ellipse;whiteSpace=wrap;html=1;align=center;" vertex="1" parent="1">
          <mxGeometry x="461" y="150" width="40" height="40" as="geometry" />
        </mxCell>
        <mxCell id="-aDSYGf8J6-FoEfoN00e-36" style="edgeStyle=orthogonalEdgeStyle;rounded=0;orthogonalLoop=1;jettySize=auto;html=1;entryX=0.386;entryY=0;entryDx=0;entryDy=0;entryPerimeter=0;" edge="1" parent="1" source="-aDSYGf8J6-FoEfoN00e-37">
          <mxGeometry relative="1" as="geometry">
            <mxPoint x="530.48" y="210" as="targetPoint" />
          </mxGeometry>
        </mxCell>
        <mxCell id="-aDSYGf8J6-FoEfoN00e-37" value="end" style="ellipse;whiteSpace=wrap;html=1;align=center;" vertex="1" parent="1">
          <mxGeometry x="511" y="150" width="40" height="40" as="geometry" />
        </mxCell>
        <mxCell id="-aDSYGf8J6-FoEfoN00e-38" value="consulta" style="shape=rhombus;perimeter=rhombusPerimeter;whiteSpace=wrap;html=1;align=center;" vertex="1" parent="1">
          <mxGeometry x="640" y="210" width="70" height="60" as="geometry" />
        </mxCell>
        <mxCell id="-aDSYGf8J6-FoEfoN00e-39" value="vereador" style="whiteSpace=wrap;html=1;align=center;" vertex="1" parent="1">
          <mxGeometry x="751" y="210" width="180" height="50" as="geometry" />
        </mxCell>
        <mxCell id="-aDSYGf8J6-FoEfoN00e-40" value="" style="edgeStyle=orthogonalEdgeStyle;rounded=0;orthogonalLoop=1;jettySize=auto;html=1;entryX=0.111;entryY=0;entryDx=0;entryDy=0;entryPerimeter=0;" edge="1" parent="1" source="-aDSYGf8J6-FoEfoN00e-41" target="-aDSYGf8J6-FoEfoN00e-39">
          <mxGeometry relative="1" as="geometry" />
        </mxCell>
        <mxCell id="-aDSYGf8J6-FoEfoN00e-41" value="num" style="ellipse;whiteSpace=wrap;html=1;align=center;fontStyle=4;" vertex="1" parent="1">
          <mxGeometry x="751" y="150" width="40" height="40" as="geometry" />
        </mxCell>
        <mxCell id="-aDSYGf8J6-FoEfoN00e-42" style="edgeStyle=orthogonalEdgeStyle;rounded=0;orthogonalLoop=1;jettySize=auto;html=1;entryX=0.386;entryY=0;entryDx=0;entryDy=0;entryPerimeter=0;" edge="1" parent="1" source="-aDSYGf8J6-FoEfoN00e-43" target="-aDSYGf8J6-FoEfoN00e-39">
          <mxGeometry relative="1" as="geometry" />
        </mxCell>
        <mxCell id="-aDSYGf8J6-FoEfoN00e-43" value="nome" style="ellipse;whiteSpace=wrap;html=1;align=center;" vertex="1" parent="1">
          <mxGeometry x="801" y="150" width="40" height="40" as="geometry" />
        </mxCell>
        <mxCell id="-aDSYGf8J6-FoEfoN00e-46" value="projeto" style="whiteSpace=wrap;html=1;align=center;" vertex="1" parent="1">
          <mxGeometry x="740" y="500" width="190" height="50" as="geometry" />
        </mxCell>
        <mxCell id="-aDSYGf8J6-FoEfoN00e-47" value="" style="edgeStyle=orthogonalEdgeStyle;rounded=0;orthogonalLoop=1;jettySize=auto;html=1;entryX=0.111;entryY=0;entryDx=0;entryDy=0;entryPerimeter=0;" edge="1" parent="1" source="-aDSYGf8J6-FoEfoN00e-48" target="-aDSYGf8J6-FoEfoN00e-46">
          <mxGeometry relative="1" as="geometry" />
        </mxCell>
        <mxCell id="-aDSYGf8J6-FoEfoN00e-48" value="cod" style="ellipse;whiteSpace=wrap;html=1;align=center;fontStyle=4;" vertex="1" parent="1">
          <mxGeometry x="740" y="440" width="40" height="40" as="geometry" />
        </mxCell>
        <mxCell id="-aDSYGf8J6-FoEfoN00e-49" style="edgeStyle=orthogonalEdgeStyle;rounded=0;orthogonalLoop=1;jettySize=auto;html=1;entryX=0.386;entryY=0;entryDx=0;entryDy=0;entryPerimeter=0;" edge="1" parent="1" source="-aDSYGf8J6-FoEfoN00e-50" target="-aDSYGf8J6-FoEfoN00e-46">
          <mxGeometry relative="1" as="geometry" />
        </mxCell>
        <mxCell id="-aDSYGf8J6-FoEfoN00e-50" value="autor" style="ellipse;whiteSpace=wrap;html=1;align=center;" vertex="1" parent="1">
          <mxGeometry x="790" y="440" width="40" height="40" as="geometry" />
        </mxCell>
        <mxCell id="-aDSYGf8J6-FoEfoN00e-51" style="edgeStyle=orthogonalEdgeStyle;rounded=0;orthogonalLoop=1;jettySize=auto;html=1;entryX=0.386;entryY=0;entryDx=0;entryDy=0;entryPerimeter=0;" edge="1" parent="1" source="-aDSYGf8J6-FoEfoN00e-52">
          <mxGeometry relative="1" as="geometry">
            <mxPoint x="859.48" y="500" as="targetPoint" />
          </mxGeometry>
        </mxCell>
        <mxCell id="-aDSYGf8J6-FoEfoN00e-52" value="end" style="ellipse;whiteSpace=wrap;html=1;align=center;" vertex="1" parent="1">
          <mxGeometry x="840" y="440" width="40" height="40" as="geometry" />
        </mxCell>
        <mxCell id="-aDSYGf8J6-FoEfoN00e-53" style="edgeStyle=orthogonalEdgeStyle;rounded=0;orthogonalLoop=1;jettySize=auto;html=1;entryX=0.386;entryY=0;entryDx=0;entryDy=0;entryPerimeter=0;" edge="1" parent="1" source="-aDSYGf8J6-FoEfoN00e-54">
          <mxGeometry relative="1" as="geometry">
            <mxPoint x="910.48" y="500" as="targetPoint" />
          </mxGeometry>
        </mxCell>
        <mxCell id="-aDSYGf8J6-FoEfoN00e-54" value="status" style="ellipse;whiteSpace=wrap;html=1;align=center;" vertex="1" parent="1">
          <mxGeometry x="891" y="440" width="40" height="40" as="geometry" />
        </mxCell>
        <mxCell id="-aDSYGf8J6-FoEfoN00e-55" value="cria" style="shape=rhombus;perimeter=rhombusPerimeter;whiteSpace=wrap;html=1;align=center;" vertex="1" parent="1">
          <mxGeometry x="900" y="340" width="70" height="60" as="geometry" />
        </mxCell>
        <mxCell id="-aDSYGf8J6-FoEfoN00e-56" value="submete-se" style="shape=rhombus;perimeter=rhombusPerimeter;whiteSpace=wrap;html=1;align=center;" vertex="1" parent="1">
          <mxGeometry x="621" y="490" width="70" height="60" as="geometry" />
        </mxCell>
        <mxCell id="-aDSYGf8J6-FoEfoN00e-57" value="votacao" style="whiteSpace=wrap;html=1;align=center;" vertex="1" parent="1">
          <mxGeometry x="400" y="500" width="190" height="50" as="geometry" />
        </mxCell>
        <mxCell id="-aDSYGf8J6-FoEfoN00e-58" value="" style="edgeStyle=orthogonalEdgeStyle;rounded=0;orthogonalLoop=1;jettySize=auto;html=1;entryX=0.111;entryY=0;entryDx=0;entryDy=0;entryPerimeter=0;" edge="1" parent="1" source="-aDSYGf8J6-FoEfoN00e-59" target="-aDSYGf8J6-FoEfoN00e-57">
          <mxGeometry relative="1" as="geometry" />
        </mxCell>
        <mxCell id="-aDSYGf8J6-FoEfoN00e-59" value="cod" style="ellipse;whiteSpace=wrap;html=1;align=center;fontStyle=4;" vertex="1" parent="1">
          <mxGeometry x="400" y="440" width="40" height="40" as="geometry" />
        </mxCell>
        <mxCell id="-aDSYGf8J6-FoEfoN00e-60" style="edgeStyle=orthogonalEdgeStyle;rounded=0;orthogonalLoop=1;jettySize=auto;html=1;entryX=0.386;entryY=0;entryDx=0;entryDy=0;entryPerimeter=0;" edge="1" parent="1" source="-aDSYGf8J6-FoEfoN00e-61" target="-aDSYGf8J6-FoEfoN00e-57">
          <mxGeometry relative="1" as="geometry" />
        </mxCell>
        <mxCell id="-aDSYGf8J6-FoEfoN00e-61" value="dt_ini" style="ellipse;whiteSpace=wrap;html=1;align=center;" vertex="1" parent="1">
          <mxGeometry x="450" y="440" width="40" height="40" as="geometry" />
        </mxCell>
        <mxCell id="-aDSYGf8J6-FoEfoN00e-62" style="edgeStyle=orthogonalEdgeStyle;rounded=0;orthogonalLoop=1;jettySize=auto;html=1;entryX=0.386;entryY=0;entryDx=0;entryDy=0;entryPerimeter=0;" edge="1" parent="1" source="-aDSYGf8J6-FoEfoN00e-63">
          <mxGeometry relative="1" as="geometry">
            <mxPoint x="519.48" y="500" as="targetPoint" />
          </mxGeometry>
        </mxCell>
        <mxCell id="-aDSYGf8J6-FoEfoN00e-63" value="dt_fin" style="ellipse;whiteSpace=wrap;html=1;align=center;" vertex="1" parent="1">
          <mxGeometry x="500" y="440" width="40" height="40" as="geometry" />
        </mxCell>
        <mxCell id="-aDSYGf8J6-FoEfoN00e-64" style="edgeStyle=orthogonalEdgeStyle;rounded=0;orthogonalLoop=1;jettySize=auto;html=1;entryX=0.386;entryY=0;entryDx=0;entryDy=0;entryPerimeter=0;" edge="1" parent="1" source="-aDSYGf8J6-FoEfoN00e-65">
          <mxGeometry relative="1" as="geometry">
            <mxPoint x="570.48" y="500" as="targetPoint" />
          </mxGeometry>
        </mxCell>
        <mxCell id="-aDSYGf8J6-FoEfoN00e-65" value="result" style="ellipse;whiteSpace=wrap;html=1;align=center;" vertex="1" parent="1">
          <mxGeometry x="551" y="440" width="40" height="40" as="geometry" />
        </mxCell>
        <mxCell id="-aDSYGf8J6-FoEfoN00e-66" value="contabilizacao" style="shape=rhombus;perimeter=rhombusPerimeter;whiteSpace=wrap;html=1;align=center;" vertex="1" parent="1">
          <mxGeometry x="290" y="490" width="70" height="60" as="geometry" />
        </mxCell>
        <mxCell id="-aDSYGf8J6-FoEfoN00e-67" value="voto" style="whiteSpace=wrap;html=1;align=center;" vertex="1" parent="1">
          <mxGeometry x="70" y="500" width="190" height="50" as="geometry" />
        </mxCell>
        <mxCell id="-aDSYGf8J6-FoEfoN00e-76" style="edgeStyle=orthogonalEdgeStyle;rounded=0;orthogonalLoop=1;jettySize=auto;html=1;entryX=0.105;entryY=0;entryDx=0;entryDy=0;entryPerimeter=0;" edge="1" parent="1" source="-aDSYGf8J6-FoEfoN00e-69" target="-aDSYGf8J6-FoEfoN00e-67">
          <mxGeometry relative="1" as="geometry" />
        </mxCell>
        <mxCell id="-aDSYGf8J6-FoEfoN00e-69" value="cod" style="ellipse;whiteSpace=wrap;html=1;align=center;fontStyle=4;" vertex="1" parent="1">
          <mxGeometry x="70" y="440" width="40" height="40" as="geometry" />
        </mxCell>
        <mxCell id="-aDSYGf8J6-FoEfoN00e-74" style="edgeStyle=orthogonalEdgeStyle;rounded=0;orthogonalLoop=1;jettySize=auto;html=1;entryX=0.386;entryY=0;entryDx=0;entryDy=0;entryPerimeter=0;" edge="1" parent="1" source="-aDSYGf8J6-FoEfoN00e-75">
          <mxGeometry relative="1" as="geometry">
            <mxPoint x="139.48000000000002" y="500" as="targetPoint" />
          </mxGeometry>
        </mxCell>
        <mxCell id="-aDSYGf8J6-FoEfoN00e-75" value="result" style="ellipse;whiteSpace=wrap;html=1;align=center;" vertex="1" parent="1">
          <mxGeometry x="120" y="440" width="40" height="40" as="geometry" />
        </mxCell>
        <mxCell id="-aDSYGf8J6-FoEfoN00e-77" value="faz" style="shape=rhombus;perimeter=rhombusPerimeter;whiteSpace=wrap;html=1;align=center;" vertex="1" parent="1">
          <mxGeometry x="30" y="320" width="70" height="60" as="geometry" />
        </mxCell>
      </root>
    </mxGraphModel>
  </diagram>
</mxfile>
